<?xml version="1.0" standalone="no"?>
<!DOCTYPE svg PUBLIC "-//W3C//DTD SVG 20010904//EN"
 "http://www.w3.org/TR/2001/REC-SVG-20010904/DTD/svg10.dtd">
<svg version="1.0" xmlns="http://www.w3.org/2000/svg"
 width="450.000000pt" height="450.000000pt" viewBox="0 0 450.000000 450.000000"
 preserveAspectRatio="xMidYMid meet">
<metadata>
Created by potrace 1.11, written by Peter Selinger 2001-2013
</metadata>
<g transform="translate(0.000000,450.000000) scale(0.100000,-0.100000)"
fill="#000000" stroke="none">
<path d="M2190 4483 c-19 -10 -45 -34 -58 -53 -27 -40 -26 -82 2 -185 9 -33
19 -113 23 -177 l6 -118 87 0 87 0 6 118 c4 71 14 145 26 189 26 91 26 129 1
170 -39 65 -117 89 -180 56z"/>
<path d="M2185 3906 c-36 -16 -60 -41 -74 -79 l-11 -27 150 0 150 0 -11 27
c-30 78 -123 115 -204 79z"/>
<path d="M695 3867 c-36 -17 -75 -82 -75 -126 0 -49 26 -100 61 -119 88 -48
189 -120 242 -174 l60 -60 66 66 66 66 -39 32 c-46 38 -144 167 -175 230 -33
68 -62 91 -123 95 -31 2 -65 -2 -83 -10z"/>
<path d="M3672 3865 c-18 -8 -40 -28 -50 -46 -48 -88 -120 -189 -174 -243
l-60 -60 71 -69 71 -69 89 84 c49 46 102 90 117 98 16 8 36 20 46 28 9 7 23
15 32 16 39 6 86 77 86 132 0 15 -12 46 -26 69 -43 67 -127 92 -202 60z"/>
<path d="M2086 3760 c-246 -28 -483 -117 -697 -261 -121 -81 -303 -263 -387
-387 -73 -106 -159 -281 -196 -395 -95 -293 -95 -642 0 -934 122 -377 413
-715 765 -889 120 -59 268 -109 402 -136 227 -44 521 -26 744 48 104 35 262
108 346 161 37 24 71 43 75 43 4 0 13 9 20 20 7 11 19 20 27 20 19 0 285 265
285 284 0 8 3 16 8 18 12 5 62 76 62 87 0 6 4 11 9 11 5 0 12 8 15 18 3 9 19
40 35 67 16 28 27 53 25 56 -2 4 7 31 20 60 142 323 161 732 49 1066 -14 43
-36 102 -49 132 -13 29 -22 56 -20 60 2 3 -9 29 -25 56 -16 28 -32 58 -35 68
-3 9 -10 17 -15 17 -5 0 -9 5 -9 11 0 11 -50 82 -62 87 -5 2 -8 10 -8 18 0 19
-266 284 -285 284 -8 0 -20 9 -27 20 -7 11 -16 20 -20 20 -4 0 -38 19 -75 43
-86 54 -245 128 -346 161 -180 59 -448 87 -631 66z m409 -145 c122 -22 281
-76 394 -135 375 -198 633 -542 723 -963 30 -145 30 -389 0 -534 -52 -242
-156 -457 -311 -638 -59 -69 -62 -72 -144 -143 -179 -155 -398 -262 -640 -313
-146 -31 -390 -31 -534 -1 -560 120 -975 535 -1095 1095 -30 145 -30 389 0
534 128 600 602 1037 1208 1113 92 12 288 4 399 -15z"/>
<path d="M3162 3164 c-29 -19 -58 -48 -66 -62 -7 -15 -18 -70 -25 -121 -9 -84
-9 -97 6 -113 16 -18 16 -19 -5 -25 -14 -3 -24 -16 -28 -32 -3 -14 -9 -44 -14
-66 -5 -22 -9 -56 -8 -75 1 -43 -54 -264 -87 -345 -13 -33 -26 -77 -30 -97
l-7 -38 -62 1 c-72 2 -99 -3 -119 -19 -16 -14 -27 -6 -27 20 0 14 -8 18 -35
18 -24 0 -37 6 -45 21 -7 11 -20 29 -31 40 -14 14 -19 31 -18 57 3 39 -15 75
-62 127 -14 17 -29 45 -32 63 -6 27 -4 32 13 32 23 0 35 17 22 33 -5 7 -12 32
-16 58 -4 25 -15 73 -25 107 l-19 62 40 11 c23 6 50 8 61 5 13 -3 31 4 49 20
40 33 83 32 116 -4 15 -16 43 -32 62 -35 19 -4 55 -11 80 -16 40 -9 49 -7 83
15 20 13 37 28 37 33 0 11 -28 41 -38 41 -4 0 -47 7 -97 15 -79 13 -108 13
-247 0 -86 -8 -164 -18 -173 -22 -22 -8 -36 16 -24 39 10 19 -15 59 -85 135
-35 39 -30 58 24 82 38 17 39 19 22 34 -28 26 -42 21 -101 -33 -51 -47 -53
-51 -48 -89 3 -26 0 -47 -10 -60 -16 -24 -10 -41 16 -41 10 0 32 -5 50 -11
l32 -11 -48 -45 c-26 -24 -60 -55 -75 -68 -14 -14 -49 -34 -77 -45 -140 -55
-231 -114 -304 -196 -45 -52 -67 -92 -67 -125 0 -10 -6 -28 -12 -39 -10 -16
-10 -24 0 -40 6 -11 12 -31 12 -46 0 -81 139 -204 230 -204 36 0 37 -9 11 -82
-20 -58 -73 -234 -92 -311 -12 -47 -29 -73 -29 -43 0 9 -6 16 -14 16 -13 0
-19 18 -64 187 -9 35 -21 63 -25 63 -5 0 -29 12 -55 27 l-46 27 35 14 c19 8
36 15 37 17 8 7 -29 113 -43 125 -8 7 -15 24 -15 38 0 35 -58 238 -81 284 -10
20 -28 39 -39 43 -21 7 -27 30 -10 40 18 11 11 56 -12 74 -19 16 -20 21 -9 48
8 19 9 38 3 54 -5 13 -12 45 -16 72 -4 26 -11 47 -16 47 -5 0 -11 14 -15 30
-4 17 -13 30 -21 30 -16 0 -19 31 -5 45 6 6 3 51 -10 120 -10 61 -19 111 -19
112 -1 10 -90 -48 -130 -86 l-53 -49 21 -53 c11 -30 26 -72 33 -94 6 -22 17
-47 24 -55 19 -24 40 -83 37 -106 -4 -32 52 -188 76 -212 15 -15 22 -34 22
-59 0 -34 33 -179 42 -189 2 -2 15 -5 29 -7 28 -5 36 -30 18 -63 -10 -20 -10
-30 4 -59 9 -20 17 -42 17 -49 0 -8 7 -17 16 -20 11 -4 14 -13 10 -28 -3 -12
1 -43 10 -68 8 -25 19 -64 24 -87 6 -23 17 -49 26 -57 8 -9 13 -20 10 -25 -4
-5 -1 -32 5 -59 10 -43 16 -51 40 -56 26 -5 27 -7 19 -37 -10 -34 19 -138 47
-171 9 -9 20 -55 27 -102 6 -47 16 -90 21 -96 20 -19 91 18 121 63 26 39 26
41 10 75 -16 33 -16 41 0 126 9 50 28 132 42 181 13 50 26 112 27 138 2 26 11
60 21 74 9 15 22 47 29 73 11 42 14 45 43 42 27 -2 37 5 69 48 20 27 40 50 44
50 12 0 27 -25 34 -60 l7 -34 20 37 c21 43 29 41 64 -14 l24 -39 70 0 c38 0
72 5 75 10 3 6 10 10 14 10 9 0 37 -87 47 -145 3 -22 13 -45 20 -51 8 -6 18
-45 24 -89 13 -99 26 -150 45 -165 9 -7 15 -29 15 -51 0 -30 67 -215 85 -237
2 -2 21 7 43 20 l41 23 3 80 c2 44 -1 90 -6 102 -7 17 -5 28 6 40 9 10 19 45
23 78 4 33 17 92 30 130 13 39 23 81 23 95 -1 38 6 79 12 76 49 -27 85 -38 99
-30 20 12 107 3 104 -11 -2 -5 -23 -11 -47 -13 -56 -4 -62 -18 -37 -97 13 -42
24 -60 35 -59 16 2 22 -12 8 -18 -10 -4 -53 -175 -56 -225 -1 -24 1 -43 6 -43
17 0 7 -22 -12 -27 -18 -5 -28 -21 -73 -120 -20 -44 -117 -151 -164 -181 -51
-33 -153 -72 -243 -93 -30 -7 -61 -17 -68 -22 -20 -15 -322 -20 -404 -7 -74
12 -177 42 -212 62 -10 5 -48 21 -83 34 -80 30 -139 76 -153 120 -8 23 -18 34
-30 34 -27 0 -40 29 -46 102 -4 44 -11 69 -25 83 -20 20 -20 20 -39 -5 -11
-14 -32 -48 -46 -75 l-27 -51 57 -74 c32 -41 79 -92 104 -113 74 -61 142 -85
142 -51 0 12 11 6 34 -20 36 -38 59 -50 141 -71 33 -9 54 -10 62 -3 12 10 53
-6 53 -21 0 -11 162 -23 172 -13 4 4 44 3 89 -2 85 -10 145 -4 324 33 111 24
258 95 263 129 3 21 34 38 51 28 19 -12 241 242 241 276 0 16 22 76 38 104 14
25 39 100 43 129 1 11 2 72 2 135 0 122 -17 190 -48 190 -11 0 -14 6 -9 24 5
21 -2 30 -43 60 -26 20 -74 43 -105 52 -32 9 -58 18 -58 20 0 18 44 181 51
189 5 5 9 24 9 42 0 19 6 44 14 56 8 12 24 58 36 102 12 44 28 94 36 112 12
25 13 36 4 53 -13 25 -7 50 14 50 16 0 26 21 26 59 0 15 4 31 10 37 5 5 16 39
24 74 8 36 22 88 30 117 18 63 24 146 11 150 -6 1 -34 -13 -63 -33z m-846
-509 c39 -114 42 -120 67 -117 20 3 26 -2 29 -20 2 -13 -1 -30 -6 -39 -14 -26
30 -158 56 -168 14 -5 18 -10 10 -15 -8 -5 -10 -21 -6 -48 7 -40 7 -41 -20
-34 -19 5 -28 2 -32 -9 -8 -19 -34 -20 -34 -1 0 16 -31 23 -156 32 -79 5 -92
4 -97 -10 -4 -9 -13 -16 -22 -16 -18 0 -18 -5 1 61 9 30 20 77 24 104 4 28 21
86 37 130 16 44 40 124 53 178 30 132 42 129 96 -28z m-166 48 c0 -16 -17 -76
-70 -248 -15 -49 -31 -111 -35 -138 -4 -26 -11 -49 -15 -52 -4 -3 -21 2 -36
10 -16 8 -36 15 -45 15 -9 0 -37 18 -62 40 -38 34 -46 47 -52 89 -8 62 17 125
66 164 19 15 41 34 50 42 9 8 25 15 35 15 11 0 25 5 31 11 12 12 112 66 126
68 4 1 7 -7 7 -16z m653 -677 l37 -7 -6 -42 c-7 -52 -24 -108 -36 -124 -5 -7
-7 -21 -4 -31 4 -12 -1 -29 -12 -43 -19 -22 -20 -22 -30 -3 -6 11 -13 36 -17
57 -6 28 -14 41 -33 48 -21 8 -24 14 -19 45 3 19 0 55 -7 79 -13 42 -13 44 8
48 11 2 35 -2 51 -8 17 -7 47 -15 68 -19z"/>
<path d="M1114 3461 c-70 -32 -105 -107 -83 -181 7 -22 13 -40 14 -40 2 0 215
214 215 216 0 5 -66 24 -84 24 -12 0 -40 -9 -62 -19z"/>
<path d="M3280 3468 c-19 -5 -36 -11 -37 -12 -2 -1 46 -51 105 -110 120 -120
135 -125 140 -40 5 67 -23 116 -85 147 -42 22 -84 27 -123 15z"/>
<path d="M661 2382 c-55 -27 -76 -64 -76 -131 0 -47 5 -64 27 -93 15 -20 41
-40 57 -46 l29 -10 0 149 c0 82 -1 149 -1 149 -1 0 -17 -8 -36 -18z"/>
<path d="M3802 2250 l0 -148 29 10 c36 12 77 63 85 106 14 71 -25 149 -85 170
l-29 10 0 -148z"/>
<path d="M90 2383 c-31 -11 -71 -58 -81 -95 -13 -51 2 -106 41 -143 28 -26 38
-30 88 -29 31 0 84 8 117 18 33 9 113 20 178 23 l117 6 0 91 0 91 -113 1 c-82
0 -132 6 -190 22 -75 21 -126 26 -157 15z"/>
<path d="M4300 2381 c-31 -18 -209 -43 -278 -39 l-72 3 0 -92 0 -93 88 0 c51
0 124 -9 177 -21 138 -31 175 -33 212 -10 47 29 67 66 67 121 0 55 -21 92 -67
120 -33 21 -100 26 -127 11z"/>
<path d="M1031 1217 c-29 -117 78 -222 191 -188 21 7 38 13 38 14 0 3 -213
217 -216 217 -1 0 -7 -19 -13 -43z"/>
<path d="M3343 1152 c-57 -58 -103 -107 -103 -108 0 -1 20 -7 43 -13 76 -19
153 16 195 87 26 46 10 145 -22 140 -6 0 -57 -49 -113 -106z"/>
<path d="M3458 1052 l-72 -70 52 -47 c46 -42 137 -167 184 -254 47 -86 194
-77 252 15 14 22 26 53 26 68 0 55 -47 126 -86 132 -9 1 -23 9 -32 16 -10 8
-30 20 -46 28 -15 8 -68 52 -117 98 l-89 84 -72 -70z"/>
<path d="M930 1058 c-39 -44 -164 -135 -247 -179 -34 -19 -63 -73 -63 -120 0
-18 11 -51 25 -75 29 -50 74 -69 142 -61 52 6 84 32 114 95 31 63 129 192 175
230 l38 32 -64 65 c-35 36 -67 65 -70 64 -3 -1 -25 -23 -50 -51z"/>
<path d="M2112 670 c21 -61 99 -100 170 -86 43 9 94 49 106 85 l11 30 -149 0
-149 0 11 -29z"/>
<path d="M2160 463 c0 -53 -9 -124 -21 -178 -33 -143 -34 -174 -7 -215 48 -72
143 -88 207 -34 58 48 60 79 22 249 -12 53 -21 126 -21 178 l0 87 -90 0 -90 0
0 -87z"/>
</g>
</svg>
